<mxfile host="drawio-plugin" modified="2021-05-11T16:21:53.226Z" agent="5.0 (Windows NT 6.2; Win64; x64) AppleWebKit/537.36 (KHTML, like Gecko) Chrome/84.0.4147.105 Safari/537.36" etag="Rte-YthRg-Bi_E9Jifip" version="14.6.6" type="embed" pages="2"><diagram id="C5RBs43oDa-KdzZeNtuy" name="Page-1"><mxGraphModel dx="996" dy="1697" grid="1" gridSize="10" guides="1" tooltips="1" connect="1" arrows="1" fold="1" page="1" pageScale="1" pageWidth="827" pageHeight="1169" math="0" shadow="0"><root><mxCell id="WIyWlLk6GJQsqaUBKTNV-0"/><mxCell id="WIyWlLk6GJQsqaUBKTNV-1" parent="WIyWlLk6GJQsqaUBKTNV-0"/><mxCell id="zkfFHV4jXpPFQw0GAbJ--0" value="Blog" style="swimlane;fontStyle=2;align=center;verticalAlign=top;childLayout=stackLayout;horizontal=1;startSize=26;horizontalStack=0;resizeParent=1;resizeLast=0;collapsible=1;marginBottom=0;rounded=0;shadow=0;strokeWidth=1;" parent="WIyWlLk6GJQsqaUBKTNV-1" vertex="1"><mxGeometry x="20" y="-110" width="210" height="480" as="geometry"><mxRectangle x="230" y="-20" width="160" height="26" as="alternateBounds"/></mxGeometry></mxCell><mxCell id="zkfFHV4jXpPFQw0GAbJ--1" value="user" style="text;align=left;verticalAlign=top;spacingLeft=4;spacingRight=4;overflow=hidden;rotatable=0;points=[[0,0.5],[1,0.5]];portConstraint=eastwest;" parent="zkfFHV4jXpPFQw0GAbJ--0" vertex="1"><mxGeometry y="26" width="210" height="26" as="geometry"/></mxCell><mxCell id="zkfFHV4jXpPFQw0GAbJ--2" value="title" style="text;align=left;verticalAlign=top;spacingLeft=4;spacingRight=4;overflow=hidden;rotatable=0;points=[[0,0.5],[1,0.5]];portConstraint=eastwest;rounded=0;shadow=0;html=0;" parent="zkfFHV4jXpPFQw0GAbJ--0" vertex="1"><mxGeometry y="52" width="210" height="26" as="geometry"/></mxCell><mxCell id="zkfFHV4jXpPFQw0GAbJ--3" value="created_date&#10;" style="text;align=left;verticalAlign=top;spacingLeft=4;spacingRight=4;overflow=hidden;rotatable=0;points=[[0,0.5],[1,0.5]];portConstraint=eastwest;rounded=0;shadow=0;html=0;" parent="zkfFHV4jXpPFQw0GAbJ--0" vertex="1"><mxGeometry y="78" width="210" height="26" as="geometry"/></mxCell><mxCell id="yJOefk_Ltb-KHYZo61ft-4" value="created_date&#10;" style="text;align=left;verticalAlign=top;spacingLeft=4;spacingRight=4;overflow=hidden;rotatable=0;points=[[0,0.5],[1,0.5]];portConstraint=eastwest;rounded=0;shadow=0;html=0;" parent="zkfFHV4jXpPFQw0GAbJ--0" vertex="1"><mxGeometry y="104" width="210" height="26" as="geometry"/></mxCell><mxCell id="yJOefk_Ltb-KHYZo61ft-5" value="subdomain" style="text;align=left;verticalAlign=top;spacingLeft=4;spacingRight=4;overflow=hidden;rotatable=0;points=[[0,0.5],[1,0.5]];portConstraint=eastwest;rounded=0;shadow=0;html=0;" parent="zkfFHV4jXpPFQw0GAbJ--0" vertex="1"><mxGeometry y="130" width="210" height="26" as="geometry"/></mxCell><mxCell id="yJOefk_Ltb-KHYZo61ft-10" value="domain" style="text;align=left;verticalAlign=top;spacingLeft=4;spacingRight=4;overflow=hidden;rotatable=0;points=[[0,0.5],[1,0.5]];portConstraint=eastwest;rounded=0;shadow=0;html=0;" parent="zkfFHV4jXpPFQw0GAbJ--0" vertex="1"><mxGeometry y="156" width="210" height="26" as="geometry"/></mxCell><mxCell id="yJOefk_Ltb-KHYZo61ft-11" value="content" style="text;align=left;verticalAlign=top;spacingLeft=4;spacingRight=4;overflow=hidden;rotatable=0;points=[[0,0.5],[1,0.5]];portConstraint=eastwest;rounded=0;shadow=0;html=0;" parent="zkfFHV4jXpPFQw0GAbJ--0" vertex="1"><mxGeometry y="182" width="210" height="26" as="geometry"/></mxCell><mxCell id="yJOefk_Ltb-KHYZo61ft-12" value="reviewed" style="text;align=left;verticalAlign=top;spacingLeft=4;spacingRight=4;overflow=hidden;rotatable=0;points=[[0,0.5],[1,0.5]];portConstraint=eastwest;rounded=0;shadow=0;html=0;" parent="zkfFHV4jXpPFQw0GAbJ--0" vertex="1"><mxGeometry y="208" width="210" height="26" as="geometry"/></mxCell><mxCell id="yJOefk_Ltb-KHYZo61ft-13" value="upgraded" style="text;align=left;verticalAlign=top;spacingLeft=4;spacingRight=4;overflow=hidden;rotatable=0;points=[[0,0.5],[1,0.5]];portConstraint=eastwest;rounded=0;shadow=0;html=0;" parent="zkfFHV4jXpPFQw0GAbJ--0" vertex="1"><mxGeometry y="234" width="210" height="26" as="geometry"/></mxCell><mxCell id="yJOefk_Ltb-KHYZo61ft-14" value="blocked" style="text;align=left;verticalAlign=top;spacingLeft=4;spacingRight=4;overflow=hidden;rotatable=0;points=[[0,0.5],[1,0.5]];portConstraint=eastwest;rounded=0;shadow=0;html=0;" parent="zkfFHV4jXpPFQw0GAbJ--0" vertex="1"><mxGeometry y="260" width="210" height="26" as="geometry"/></mxCell><mxCell id="yJOefk_Ltb-KHYZo61ft-15" value="external_stylesheet" style="text;align=left;verticalAlign=top;spacingLeft=4;spacingRight=4;overflow=hidden;rotatable=0;points=[[0,0.5],[1,0.5]];portConstraint=eastwest;rounded=0;shadow=0;html=0;" parent="zkfFHV4jXpPFQw0GAbJ--0" vertex="1"><mxGeometry y="286" width="210" height="26" as="geometry"/></mxCell><mxCell id="yJOefk_Ltb-KHYZo61ft-16" value="custom_styles" style="text;align=left;verticalAlign=top;spacingLeft=4;spacingRight=4;overflow=hidden;rotatable=0;points=[[0,0.5],[1,0.5]];portConstraint=eastwest;rounded=0;shadow=0;html=0;" parent="zkfFHV4jXpPFQw0GAbJ--0" vertex="1"><mxGeometry y="312" width="210" height="26" as="geometry"/></mxCell><mxCell id="yJOefk_Ltb-KHYZo61ft-17" value="favicon" style="text;align=left;verticalAlign=top;spacingLeft=4;spacingRight=4;overflow=hidden;rotatable=0;points=[[0,0.5],[1,0.5]];portConstraint=eastwest;rounded=0;shadow=0;html=0;" parent="zkfFHV4jXpPFQw0GAbJ--0" vertex="1"><mxGeometry y="338" width="210" height="26" as="geometry"/></mxCell><mxCell id="yJOefk_Ltb-KHYZo61ft-18" value="fathom_site_id" style="text;align=left;verticalAlign=top;spacingLeft=4;spacingRight=4;overflow=hidden;rotatable=0;points=[[0,0.5],[1,0.5]];portConstraint=eastwest;rounded=0;shadow=0;html=0;" parent="zkfFHV4jXpPFQw0GAbJ--0" vertex="1"><mxGeometry y="364" width="210" height="26" as="geometry"/></mxCell><mxCell id="zkfFHV4jXpPFQw0GAbJ--4" value="" style="line;html=1;strokeWidth=1;align=left;verticalAlign=middle;spacingTop=-1;spacingLeft=3;spacingRight=3;rotatable=0;labelPosition=right;points=[];portConstraint=eastwest;" parent="zkfFHV4jXpPFQw0GAbJ--0" vertex="1"><mxGeometry y="390" width="210" height="8" as="geometry"/></mxCell><mxCell id="yJOefk_Ltb-KHYZo61ft-19" value="bear_domain" style="text;align=left;verticalAlign=top;spacingLeft=4;spacingRight=4;overflow=hidden;rotatable=0;points=[[0,0.5],[1,0.5]];portConstraint=eastwest;rounded=0;shadow=0;html=0;" parent="zkfFHV4jXpPFQw0GAbJ--0" vertex="1"><mxGeometry y="398" width="210" height="26" as="geometry"/></mxCell><mxCell id="yJOefk_Ltb-KHYZo61ft-20" value="useful_domain" style="text;align=left;verticalAlign=top;spacingLeft=4;spacingRight=4;overflow=hidden;rotatable=0;points=[[0,0.5],[1,0.5]];portConstraint=eastwest;rounded=0;shadow=0;html=0;" parent="zkfFHV4jXpPFQw0GAbJ--0" vertex="1"><mxGeometry y="424" width="210" height="26" as="geometry"/></mxCell><mxCell id="yJOefk_Ltb-KHYZo61ft-21" value="save" style="text;align=left;verticalAlign=top;spacingLeft=4;spacingRight=4;overflow=hidden;rotatable=0;points=[[0,0.5],[1,0.5]];portConstraint=eastwest;rounded=0;shadow=0;html=0;" parent="zkfFHV4jXpPFQw0GAbJ--0" vertex="1"><mxGeometry y="450" width="210" height="26" as="geometry"/></mxCell><mxCell id="zkfFHV4jXpPFQw0GAbJ--17" value="Emailer" style="swimlane;fontStyle=0;align=center;verticalAlign=top;childLayout=stackLayout;horizontal=1;startSize=26;horizontalStack=0;resizeParent=1;resizeLast=0;collapsible=1;marginBottom=0;rounded=0;shadow=0;strokeWidth=1;" parent="WIyWlLk6GJQsqaUBKTNV-1" vertex="1"><mxGeometry x="280" y="-258" width="160" height="138" as="geometry"><mxRectangle x="550" y="140" width="160" height="26" as="alternateBounds"/></mxGeometry></mxCell><mxCell id="zkfFHV4jXpPFQw0GAbJ--18" value="notify" style="text;align=left;verticalAlign=top;spacingLeft=4;spacingRight=4;overflow=hidden;rotatable=0;points=[[0,0.5],[1,0.5]];portConstraint=eastwest;" parent="zkfFHV4jXpPFQw0GAbJ--17" vertex="1"><mxGeometry y="26" width="160" height="26" as="geometry"/></mxCell><mxCell id="zkfFHV4jXpPFQw0GAbJ--19" value="notification_text" style="text;align=left;verticalAlign=top;spacingLeft=4;spacingRight=4;overflow=hidden;rotatable=0;points=[[0,0.5],[1,0.5]];portConstraint=eastwest;rounded=0;shadow=0;html=0;" parent="zkfFHV4jXpPFQw0GAbJ--17" vertex="1"><mxGeometry y="52" width="160" height="26" as="geometry"/></mxCell><mxCell id="yJOefk_Ltb-KHYZo61ft-29" value="blog" style="text;align=left;verticalAlign=top;spacingLeft=4;spacingRight=4;overflow=hidden;rotatable=0;points=[[0,0.5],[1,0.5]];portConstraint=eastwest;rounded=0;shadow=0;html=0;" parent="zkfFHV4jXpPFQw0GAbJ--17" vertex="1"><mxGeometry y="78" width="160" height="26" as="geometry"/></mxCell><mxCell id="zkfFHV4jXpPFQw0GAbJ--23" value="" style="line;html=1;strokeWidth=1;align=left;verticalAlign=middle;spacingTop=-1;spacingLeft=3;spacingRight=3;rotatable=0;labelPosition=right;points=[];portConstraint=eastwest;" parent="zkfFHV4jXpPFQw0GAbJ--17" vertex="1"><mxGeometry y="104" width="160" height="8" as="geometry"/></mxCell><mxCell id="yJOefk_Ltb-KHYZo61ft-28" value="__str__" style="text;align=left;verticalAlign=top;spacingLeft=4;spacingRight=4;overflow=hidden;rotatable=0;points=[[0,0.5],[1,0.5]];portConstraint=eastwest;rounded=0;shadow=0;html=0;" parent="zkfFHV4jXpPFQw0GAbJ--17" vertex="1"><mxGeometry y="112" width="160" height="26" as="geometry"/></mxCell><mxCell id="yJOefk_Ltb-KHYZo61ft-23" value="Subscriber" style="swimlane;fontStyle=0;align=center;verticalAlign=top;childLayout=stackLayout;horizontal=1;startSize=26;horizontalStack=0;resizeParent=1;resizeLast=0;collapsible=1;marginBottom=0;rounded=0;shadow=0;strokeWidth=1;" parent="WIyWlLk6GJQsqaUBKTNV-1" vertex="1"><mxGeometry x="264" y="280" width="150" height="160" as="geometry"><mxRectangle x="550" y="140" width="160" height="26" as="alternateBounds"/></mxGeometry></mxCell><mxCell id="yJOefk_Ltb-KHYZo61ft-24" value="blog" style="text;align=left;verticalAlign=top;spacingLeft=4;spacingRight=4;overflow=hidden;rotatable=0;points=[[0,0.5],[1,0.5]];portConstraint=eastwest;" parent="yJOefk_Ltb-KHYZo61ft-23" vertex="1"><mxGeometry y="26" width="150" height="26" as="geometry"/></mxCell><mxCell id="yJOefk_Ltb-KHYZo61ft-25" value="email_address" style="text;align=left;verticalAlign=top;spacingLeft=4;spacingRight=4;overflow=hidden;rotatable=0;points=[[0,0.5],[1,0.5]];portConstraint=eastwest;rounded=0;shadow=0;html=0;" parent="yJOefk_Ltb-KHYZo61ft-23" vertex="1"><mxGeometry y="52" width="150" height="26" as="geometry"/></mxCell><mxCell id="yJOefk_Ltb-KHYZo61ft-27" value="subscribed_date" style="text;align=left;verticalAlign=top;spacingLeft=4;spacingRight=4;overflow=hidden;rotatable=0;points=[[0,0.5],[1,0.5]];portConstraint=eastwest;rounded=0;shadow=0;html=0;" parent="yJOefk_Ltb-KHYZo61ft-23" vertex="1"><mxGeometry y="78" width="150" height="32" as="geometry"/></mxCell><mxCell id="yJOefk_Ltb-KHYZo61ft-26" value="" style="line;html=1;strokeWidth=1;align=left;verticalAlign=middle;spacingTop=-1;spacingLeft=3;spacingRight=3;rotatable=0;labelPosition=right;points=[];portConstraint=eastwest;" parent="yJOefk_Ltb-KHYZo61ft-23" vertex="1"><mxGeometry y="110" width="150" height="8" as="geometry"/></mxCell><mxCell id="yJOefk_Ltb-KHYZo61ft-30" value="Post" style="swimlane;fontStyle=0;align=center;verticalAlign=top;childLayout=stackLayout;horizontal=1;startSize=26;horizontalStack=0;resizeParent=1;resizeLast=0;collapsible=1;marginBottom=0;rounded=0;shadow=0;strokeWidth=1;" parent="WIyWlLk6GJQsqaUBKTNV-1" vertex="1"><mxGeometry x="260" y="-100" width="210" height="350" as="geometry"><mxRectangle x="550" y="140" width="160" height="26" as="alternateBounds"/></mxGeometry></mxCell><mxCell id="yJOefk_Ltb-KHYZo61ft-31" value="blog" style="text;align=left;verticalAlign=top;spacingLeft=4;spacingRight=4;overflow=hidden;rotatable=0;points=[[0,0.5],[1,0.5]];portConstraint=eastwest;" parent="yJOefk_Ltb-KHYZo61ft-30" vertex="1"><mxGeometry y="26" width="210" height="26" as="geometry"/></mxCell><mxCell id="yJOefk_Ltb-KHYZo61ft-32" value="title" style="text;align=left;verticalAlign=top;spacingLeft=4;spacingRight=4;overflow=hidden;rotatable=0;points=[[0,0.5],[1,0.5]];portConstraint=eastwest;rounded=0;shadow=0;html=0;" parent="yJOefk_Ltb-KHYZo61ft-30" vertex="1"><mxGeometry y="52" width="210" height="26" as="geometry"/></mxCell><mxCell id="yJOefk_Ltb-KHYZo61ft-33" value="slug" style="text;align=left;verticalAlign=top;spacingLeft=4;spacingRight=4;overflow=hidden;rotatable=0;points=[[0,0.5],[1,0.5]];portConstraint=eastwest;rounded=0;shadow=0;html=0;" parent="yJOefk_Ltb-KHYZo61ft-30" vertex="1"><mxGeometry y="78" width="210" height="26" as="geometry"/></mxCell><mxCell id="yJOefk_Ltb-KHYZo61ft-38" value="published_date" style="text;align=left;verticalAlign=top;spacingLeft=4;spacingRight=4;overflow=hidden;rotatable=0;points=[[0,0.5],[1,0.5]];portConstraint=eastwest;rounded=0;shadow=0;html=0;" parent="yJOefk_Ltb-KHYZo61ft-30" vertex="1"><mxGeometry y="104" width="210" height="26" as="geometry"/></mxCell><mxCell id="yJOefk_Ltb-KHYZo61ft-37" value="tags" style="text;align=left;verticalAlign=top;spacingLeft=4;spacingRight=4;overflow=hidden;rotatable=0;points=[[0,0.5],[1,0.5]];portConstraint=eastwest;rounded=0;shadow=0;html=0;" parent="yJOefk_Ltb-KHYZo61ft-30" vertex="1"><mxGeometry y="130" width="210" height="26" as="geometry"/></mxCell><mxCell id="yJOefk_Ltb-KHYZo61ft-36" value="publish" style="text;align=left;verticalAlign=top;spacingLeft=4;spacingRight=4;overflow=hidden;rotatable=0;points=[[0,0.5],[1,0.5]];portConstraint=eastwest;rounded=0;shadow=0;html=0;" parent="yJOefk_Ltb-KHYZo61ft-30" vertex="1"><mxGeometry y="156" width="210" height="26" as="geometry"/></mxCell><mxCell id="yJOefk_Ltb-KHYZo61ft-40" value="show_in_feed" style="text;align=left;verticalAlign=top;spacingLeft=4;spacingRight=4;overflow=hidden;rotatable=0;points=[[0,0.5],[1,0.5]];portConstraint=eastwest;rounded=0;shadow=0;html=0;" parent="yJOefk_Ltb-KHYZo61ft-30" vertex="1"><mxGeometry y="182" width="210" height="26" as="geometry"/></mxCell><mxCell id="yJOefk_Ltb-KHYZo61ft-41" value="is_page" style="text;align=left;verticalAlign=top;spacingLeft=4;spacingRight=4;overflow=hidden;rotatable=0;points=[[0,0.5],[1,0.5]];portConstraint=eastwest;rounded=0;shadow=0;html=0;" parent="yJOefk_Ltb-KHYZo61ft-30" vertex="1"><mxGeometry y="208" width="210" height="26" as="geometry"/></mxCell><mxCell id="yJOefk_Ltb-KHYZo61ft-39" value="content" style="text;align=left;verticalAlign=top;spacingLeft=4;spacingRight=4;overflow=hidden;rotatable=0;points=[[0,0.5],[1,0.5]];portConstraint=eastwest;rounded=0;shadow=0;html=0;" parent="yJOefk_Ltb-KHYZo61ft-30" vertex="1"><mxGeometry y="234" width="210" height="26" as="geometry"/></mxCell><mxCell id="yJOefk_Ltb-KHYZo61ft-42" value="canonical_url" style="text;align=left;verticalAlign=top;spacingLeft=4;spacingRight=4;overflow=hidden;rotatable=0;points=[[0,0.5],[1,0.5]];portConstraint=eastwest;rounded=0;shadow=0;html=0;" parent="yJOefk_Ltb-KHYZo61ft-30" vertex="1"><mxGeometry y="260" width="210" height="26" as="geometry"/></mxCell><mxCell id="yJOefk_Ltb-KHYZo61ft-34" value="" style="line;html=1;strokeWidth=1;align=left;verticalAlign=middle;spacingTop=-1;spacingLeft=3;spacingRight=3;rotatable=0;labelPosition=right;points=[];portConstraint=eastwest;" parent="yJOefk_Ltb-KHYZo61ft-30" vertex="1"><mxGeometry y="286" width="210" height="8" as="geometry"/></mxCell><mxCell id="yJOefk_Ltb-KHYZo61ft-45" value="__str__" style="text;align=left;verticalAlign=top;spacingLeft=4;spacingRight=4;overflow=hidden;rotatable=0;points=[[0,0.5],[1,0.5]];portConstraint=eastwest;rounded=0;shadow=0;html=0;" parent="yJOefk_Ltb-KHYZo61ft-30" vertex="1"><mxGeometry y="294" width="210" height="26" as="geometry"/></mxCell><mxCell id="yJOefk_Ltb-KHYZo61ft-44" value="save" style="text;align=left;verticalAlign=top;spacingLeft=4;spacingRight=4;overflow=hidden;rotatable=0;points=[[0,0.5],[1,0.5]];portConstraint=eastwest;rounded=0;shadow=0;html=0;" parent="yJOefk_Ltb-KHYZo61ft-30" vertex="1"><mxGeometry y="320" width="210" height="26" as="geometry"/></mxCell><mxCell id="yJOefk_Ltb-KHYZo61ft-52" value="Upvote" style="swimlane;fontStyle=0;align=center;verticalAlign=top;childLayout=stackLayout;horizontal=1;startSize=26;horizontalStack=0;resizeParent=1;resizeLast=0;collapsible=1;marginBottom=0;rounded=0;shadow=0;strokeWidth=1;" parent="WIyWlLk6GJQsqaUBKTNV-1" vertex="1"><mxGeometry x="530" y="61" width="160" height="138" as="geometry"><mxRectangle x="550" y="140" width="160" height="26" as="alternateBounds"/></mxGeometry></mxCell><mxCell id="yJOefk_Ltb-KHYZo61ft-53" value="post" style="text;align=left;verticalAlign=top;spacingLeft=4;spacingRight=4;overflow=hidden;rotatable=0;points=[[0,0.5],[1,0.5]];portConstraint=eastwest;" parent="yJOefk_Ltb-KHYZo61ft-52" vertex="1"><mxGeometry y="26" width="160" height="26" as="geometry"/></mxCell><mxCell id="yJOefk_Ltb-KHYZo61ft-54" value="created_date" style="text;align=left;verticalAlign=top;spacingLeft=4;spacingRight=4;overflow=hidden;rotatable=0;points=[[0,0.5],[1,0.5]];portConstraint=eastwest;rounded=0;shadow=0;html=0;" parent="yJOefk_Ltb-KHYZo61ft-52" vertex="1"><mxGeometry y="52" width="160" height="26" as="geometry"/></mxCell><mxCell id="yJOefk_Ltb-KHYZo61ft-55" value="ip_address" style="text;align=left;verticalAlign=top;spacingLeft=4;spacingRight=4;overflow=hidden;rotatable=0;points=[[0,0.5],[1,0.5]];portConstraint=eastwest;rounded=0;shadow=0;html=0;" parent="yJOefk_Ltb-KHYZo61ft-52" vertex="1"><mxGeometry y="78" width="160" height="26" as="geometry"/></mxCell><mxCell id="yJOefk_Ltb-KHYZo61ft-56" value="" style="line;html=1;strokeWidth=1;align=left;verticalAlign=middle;spacingTop=-1;spacingLeft=3;spacingRight=3;rotatable=0;labelPosition=right;points=[];portConstraint=eastwest;" parent="yJOefk_Ltb-KHYZo61ft-52" vertex="1"><mxGeometry y="104" width="160" height="8" as="geometry"/></mxCell><mxCell id="yJOefk_Ltb-KHYZo61ft-57" value="__str__" style="text;align=left;verticalAlign=top;spacingLeft=4;spacingRight=4;overflow=hidden;rotatable=0;points=[[0,0.5],[1,0.5]];portConstraint=eastwest;rounded=0;shadow=0;html=0;" parent="yJOefk_Ltb-KHYZo61ft-52" vertex="1"><mxGeometry y="112" width="160" height="26" as="geometry"/></mxCell><mxCell id="yJOefk_Ltb-KHYZo61ft-58" value="Hit" style="swimlane;fontStyle=0;align=center;verticalAlign=top;childLayout=stackLayout;horizontal=1;startSize=26;horizontalStack=0;resizeParent=1;resizeLast=0;collapsible=1;marginBottom=0;rounded=0;shadow=0;strokeWidth=1;" parent="WIyWlLk6GJQsqaUBKTNV-1" vertex="1"><mxGeometry x="510" y="-120" width="160" height="138" as="geometry"><mxRectangle x="550" y="140" width="160" height="26" as="alternateBounds"/></mxGeometry></mxCell><mxCell id="yJOefk_Ltb-KHYZo61ft-59" value="post" style="text;align=left;verticalAlign=top;spacingLeft=4;spacingRight=4;overflow=hidden;rotatable=0;points=[[0,0.5],[1,0.5]];portConstraint=eastwest;" parent="yJOefk_Ltb-KHYZo61ft-58" vertex="1"><mxGeometry y="26" width="160" height="26" as="geometry"/></mxCell><mxCell id="yJOefk_Ltb-KHYZo61ft-60" value="created_date" style="text;align=left;verticalAlign=top;spacingLeft=4;spacingRight=4;overflow=hidden;rotatable=0;points=[[0,0.5],[1,0.5]];portConstraint=eastwest;rounded=0;shadow=0;html=0;" parent="yJOefk_Ltb-KHYZo61ft-58" vertex="1"><mxGeometry y="52" width="160" height="26" as="geometry"/></mxCell><mxCell id="yJOefk_Ltb-KHYZo61ft-61" value="ip_address" style="text;align=left;verticalAlign=top;spacingLeft=4;spacingRight=4;overflow=hidden;rotatable=0;points=[[0,0.5],[1,0.5]];portConstraint=eastwest;rounded=0;shadow=0;html=0;" parent="yJOefk_Ltb-KHYZo61ft-58" vertex="1"><mxGeometry y="78" width="160" height="26" as="geometry"/></mxCell><mxCell id="yJOefk_Ltb-KHYZo61ft-62" value="" style="line;html=1;strokeWidth=1;align=left;verticalAlign=middle;spacingTop=-1;spacingLeft=3;spacingRight=3;rotatable=0;labelPosition=right;points=[];portConstraint=eastwest;" parent="yJOefk_Ltb-KHYZo61ft-58" vertex="1"><mxGeometry y="104" width="160" height="8" as="geometry"/></mxCell><mxCell id="yJOefk_Ltb-KHYZo61ft-63" value="__str__" style="text;align=left;verticalAlign=top;spacingLeft=4;spacingRight=4;overflow=hidden;rotatable=0;points=[[0,0.5],[1,0.5]];portConstraint=eastwest;rounded=0;shadow=0;html=0;" parent="yJOefk_Ltb-KHYZo61ft-58" vertex="1"><mxGeometry y="112" width="160" height="26" as="geometry"/></mxCell><mxCell id="yJOefk_Ltb-KHYZo61ft-65" value="" style="endArrow=none;html=1;entryX=1.01;entryY=0.238;entryDx=0;entryDy=0;entryPerimeter=0;" parent="WIyWlLk6GJQsqaUBKTNV-1" target="yJOefk_Ltb-KHYZo61ft-12" edge="1"><mxGeometry width="50" height="50" relative="1" as="geometry"><mxPoint x="260" y="104" as="sourcePoint"/><mxPoint x="500" y="150" as="targetPoint"/></mxGeometry></mxCell><mxCell id="yJOefk_Ltb-KHYZo61ft-67" value="" style="endArrow=none;html=1;entryX=0;entryY=0.5;entryDx=0;entryDy=0;exitX=1;exitY=0.5;exitDx=0;exitDy=0;" parent="WIyWlLk6GJQsqaUBKTNV-1" source="yJOefk_Ltb-KHYZo61ft-37" target="yJOefk_Ltb-KHYZo61ft-60" edge="1"><mxGeometry width="50" height="50" relative="1" as="geometry"><mxPoint x="450" y="200" as="sourcePoint"/><mxPoint x="500" y="150" as="targetPoint"/></mxGeometry></mxCell><mxCell id="yJOefk_Ltb-KHYZo61ft-68" value="" style="endArrow=none;html=1;entryX=0;entryY=0.5;entryDx=0;entryDy=0;exitX=1;exitY=0.5;exitDx=0;exitDy=0;" parent="WIyWlLk6GJQsqaUBKTNV-1" source="yJOefk_Ltb-KHYZo61ft-39" target="yJOefk_Ltb-KHYZo61ft-55" edge="1"><mxGeometry width="50" height="50" relative="1" as="geometry"><mxPoint x="450" y="200" as="sourcePoint"/><mxPoint x="500" y="150" as="targetPoint"/></mxGeometry></mxCell><mxCell id="yJOefk_Ltb-KHYZo61ft-70" value="" style="endArrow=none;html=1;entryX=0;entryY=0.5;entryDx=0;entryDy=0;exitX=0.75;exitY=0;exitDx=0;exitDy=0;" parent="WIyWlLk6GJQsqaUBKTNV-1" source="zkfFHV4jXpPFQw0GAbJ--0" target="yJOefk_Ltb-KHYZo61ft-29" edge="1"><mxGeometry width="50" height="50" relative="1" as="geometry"><mxPoint x="450" y="80" as="sourcePoint"/><mxPoint x="500" y="30" as="targetPoint"/></mxGeometry></mxCell><mxCell id="yJOefk_Ltb-KHYZo61ft-71" value="" style="endArrow=none;html=1;entryX=1;entryY=0.5;entryDx=0;entryDy=0;exitX=0;exitY=0.5;exitDx=0;exitDy=0;" parent="WIyWlLk6GJQsqaUBKTNV-1" source="yJOefk_Ltb-KHYZo61ft-24" target="yJOefk_Ltb-KHYZo61ft-18" edge="1"><mxGeometry width="50" height="50" relative="1" as="geometry"><mxPoint x="450" y="320" as="sourcePoint"/><mxPoint x="500" y="270" as="targetPoint"/></mxGeometry></mxCell><mxCell id="yO68t0kHi3xlwIJ5Ztmh-33" value="User" style="html=1;" parent="WIyWlLk6GJQsqaUBKTNV-1" vertex="1"><mxGeometry x="90" y="-250" width="110" height="50" as="geometry"/></mxCell><mxCell id="yO68t0kHi3xlwIJ5Ztmh-34" value="&lt;pre style=&quot;background-color: #2b2b2b ; color: #a9b7c6 ; font-family: &amp;#34;jetbrains mono&amp;#34; , monospace ; font-size: 9.8pt&quot;&gt;django.contrib.auth.models.User&lt;/pre&gt;" style="html=1;" parent="WIyWlLk6GJQsqaUBKTNV-1" vertex="1"><mxGeometry x="25" y="-490" width="255" height="114" as="geometry"/></mxCell><mxCell id="yO68t0kHi3xlwIJ5Ztmh-35" value="" style="endArrow=none;html=1;edgeStyle=orthogonalEdgeStyle;exitX=0.467;exitY=1.018;exitDx=0;exitDy=0;exitPerimeter=0;entryX=0.5;entryY=0;entryDx=0;entryDy=0;" parent="WIyWlLk6GJQsqaUBKTNV-1" source="yO68t0kHi3xlwIJ5Ztmh-34" target="yO68t0kHi3xlwIJ5Ztmh-33" edge="1"><mxGeometry relative="1" as="geometry"><mxPoint x="330" y="-590" as="sourcePoint"/><mxPoint x="124" y="-430" as="targetPoint"/></mxGeometry></mxCell><mxCell id="yO68t0kHi3xlwIJ5Ztmh-36" value="parent" style="edgeLabel;resizable=0;html=1;align=left;verticalAlign=bottom;" parent="yO68t0kHi3xlwIJ5Ztmh-35" connectable="0" vertex="1"><mxGeometry x="-1" relative="1" as="geometry"/></mxCell><mxCell id="yO68t0kHi3xlwIJ5Ztmh-37" value="child" style="edgeLabel;resizable=0;html=1;align=right;verticalAlign=bottom;" parent="yO68t0kHi3xlwIJ5Ztmh-35" connectable="0" vertex="1"><mxGeometry x="1" relative="1" as="geometry"/></mxCell></root></mxGraphModel></diagram><diagram id="LJuXtRGCsb92oPfJ4uyI" name="Blog"><mxGraphModel dx="1846" dy="528" grid="1" gridSize="10" guides="1" tooltips="1" connect="1" arrows="1" fold="1" page="1" pageScale="1" pageWidth="850" pageHeight="1100" math="0" shadow="0"><root><mxCell id="PgQLEo8v4_Qlvh2O1nzl-0"/><mxCell id="PgQLEo8v4_Qlvh2O1nzl-1" parent="PgQLEo8v4_Qlvh2O1nzl-0"/><mxCell id="PqkLz5KyG0VK8wkJFPBa-0" value="" style="group" vertex="1" connectable="0" parent="PgQLEo8v4_Qlvh2O1nzl-1"><mxGeometry x="-110" y="70" width="820" height="560" as="geometry"/></mxCell><mxCell id="PgQLEo8v4_Qlvh2O1nzl-2" value="Helper" style="rounded=0;whiteSpace=wrap;html=1;" parent="PqkLz5KyG0VK8wkJFPBa-0" vertex="1"><mxGeometry x="250" y="130" width="120" height="60" as="geometry"/></mxCell><mxCell id="PgQLEo8v4_Qlvh2O1nzl-3" value="Heroku" style="rounded=0;whiteSpace=wrap;html=1;" parent="PqkLz5KyG0VK8wkJFPBa-0" vertex="1"><mxGeometry x="700" width="120" height="60" as="geometry"/></mxCell><mxCell id="PgQLEo8v4_Qlvh2O1nzl-4" value="" style="endArrow=classic;html=1;exitX=1.02;exitY=0.39;exitDx=0;exitDy=0;exitPerimeter=0;" parent="PqkLz5KyG0VK8wkJFPBa-0" source="PgQLEo8v4_Qlvh2O1nzl-2" target="PgQLEo8v4_Qlvh2O1nzl-3" edge="1"><mxGeometry width="50" height="50" relative="1" as="geometry"><mxPoint x="360" y="170" as="sourcePoint"/><mxPoint x="410" y="120" as="targetPoint"/></mxGeometry></mxCell><mxCell id="PgQLEo8v4_Qlvh2O1nzl-5" value="&lt;div style=&quot;color: rgb(212 , 212 , 212) ; background-color: rgb(30 , 30 , 30) ; font-family: &amp;#34;consolas&amp;#34; , &amp;#34;courier new&amp;#34; , monospace , &amp;#34;consolas&amp;#34; , &amp;#34;courier new&amp;#34; , monospace ; font-weight: normal ; font-size: 14px ; line-height: 19px&quot;&gt;&lt;div&gt;&lt;span style=&quot;color: #cda48c&quot;&gt;POST https://api.heroku.com/apps/bear-blog/domains&lt;/span&gt;&lt;/div&gt;&lt;/div&gt;" style="text;whiteSpace=wrap;html=1;" parent="PqkLz5KyG0VK8wkJFPBa-0" vertex="1"><mxGeometry x="450" y="90" width="370" height="30" as="geometry"/></mxCell><mxCell id="PgQLEo8v4_Qlvh2O1nzl-7" value="Blog" style="rounded=0;whiteSpace=wrap;html=1;" parent="PqkLz5KyG0VK8wkJFPBa-0" vertex="1"><mxGeometry x="210" y="270" width="120" height="60" as="geometry"/></mxCell><mxCell id="PgQLEo8v4_Qlvh2O1nzl-8" value="" style="endArrow=classic;html=1;entryX=0.427;entryY=0.963;entryDx=0;entryDy=0;entryPerimeter=0;" parent="PqkLz5KyG0VK8wkJFPBa-0" source="PgQLEo8v4_Qlvh2O1nzl-7" target="PgQLEo8v4_Qlvh2O1nzl-2" edge="1"><mxGeometry width="50" height="50" relative="1" as="geometry"><mxPoint x="230" y="290" as="sourcePoint"/><mxPoint x="280" y="240" as="targetPoint"/></mxGeometry></mxCell><mxCell id="PgQLEo8v4_Qlvh2O1nzl-9" value="&lt;div style=&quot;color: rgb(212 , 212 , 212) ; background-color: rgb(30 , 30 , 30) ; font-family: &amp;#34;consolas&amp;#34; , &amp;#34;courier new&amp;#34; , monospace , &amp;#34;consolas&amp;#34; , &amp;#34;courier new&amp;#34; , monospace ; font-size: 14px ; line-height: 19px&quot;&gt;delete_domain&lt;/div&gt;" style="text;html=1;align=center;verticalAlign=middle;resizable=0;points=[];autosize=1;" parent="PqkLz5KyG0VK8wkJFPBa-0" vertex="1"><mxGeometry x="320" y="160" width="120" height="20" as="geometry"/></mxCell><mxCell id="PgQLEo8v4_Qlvh2O1nzl-10" value="&lt;div style=&quot;color: rgb(212 , 212 , 212) ; background-color: rgb(30 , 30 , 30) ; font-family: &amp;#34;consolas&amp;#34; , &amp;#34;courier new&amp;#34; , monospace , &amp;#34;consolas&amp;#34; , &amp;#34;courier new&amp;#34; , monospace ; font-size: 14px ; line-height: 19px&quot;&gt;&lt;span style=&quot;color: #ffecb3&quot;&gt;add_new_domain&lt;/span&gt;&lt;/div&gt;" style="text;html=1;align=center;verticalAlign=middle;resizable=0;points=[];autosize=1;" parent="PqkLz5KyG0VK8wkJFPBa-0" vertex="1"><mxGeometry x="325" y="130" width="120" height="20" as="geometry"/></mxCell><mxCell id="PgQLEo8v4_Qlvh2O1nzl-11" value="&lt;div style=&quot;color: rgb(212 , 212 , 212) ; background-color: rgb(30 , 30 , 30) ; font-family: &amp;#34;consolas&amp;#34; , &amp;#34;courier new&amp;#34; , monospace , &amp;#34;consolas&amp;#34; , &amp;#34;courier new&amp;#34; , monospace ; font-weight: normal ; font-size: 14px ; line-height: 19px&quot;&gt;&lt;div&gt;&lt;span style=&quot;color: #cda48c&quot;&gt;DELETE https://api.heroku.com/apps/bear-blog/domains&lt;/span&gt;&lt;/div&gt;&lt;/div&gt;" style="text;whiteSpace=wrap;html=1;" parent="PqkLz5KyG0VK8wkJFPBa-0" vertex="1"><mxGeometry x="450" y="140" width="370" height="30" as="geometry"/></mxCell><mxCell id="PgQLEo8v4_Qlvh2O1nzl-12" value="Blog thuộc User được đẩy về phía Heroku" style="text;html=1;align=center;verticalAlign=middle;resizable=0;points=[];autosize=1;" parent="PqkLz5KyG0VK8wkJFPBa-0" vertex="1"><mxGeometry x="325" y="270" width="240" height="20" as="geometry"/></mxCell><mxCell id="cAt0Dmq9UFI4TEEOR1n5-0" value="User" style="html=1;" parent="PqkLz5KyG0VK8wkJFPBa-0" vertex="1"><mxGeometry x="60" y="135" width="110" height="50" as="geometry"/></mxCell><mxCell id="cAt0Dmq9UFI4TEEOR1n5-1" value="" style="edgeStyle=entityRelationEdgeStyle;fontSize=12;html=1;endArrow=ERoneToMany;exitX=1;exitY=0.5;exitDx=0;exitDy=0;" parent="PqkLz5KyG0VK8wkJFPBa-0" source="cAt0Dmq9UFI4TEEOR1n5-0" target="PgQLEo8v4_Qlvh2O1nzl-7" edge="1"><mxGeometry width="100" height="100" relative="1" as="geometry"><mxPoint x="260" y="460" as="sourcePoint"/><mxPoint x="360" y="360" as="targetPoint"/></mxGeometry></mxCell><mxCell id="F8KAaUYo4xUCTzD1Fr2z-0" value="POST" style="whiteSpace=wrap;html=1;align=center;" parent="PqkLz5KyG0VK8wkJFPBa-0" vertex="1"><mxGeometry x="210" y="390" width="120" height="60" as="geometry"/></mxCell><mxCell id="F8KAaUYo4xUCTzD1Fr2z-1" value="Upvote" style="whiteSpace=wrap;html=1;align=center;" parent="PqkLz5KyG0VK8wkJFPBa-0" vertex="1"><mxGeometry x="210" y="500" width="120" height="60" as="geometry"/></mxCell><mxCell id="F8KAaUYo4xUCTzD1Fr2z-2" value="Hit" style="whiteSpace=wrap;html=1;align=center;" parent="PqkLz5KyG0VK8wkJFPBa-0" vertex="1"><mxGeometry x="370" y="500" width="120" height="60" as="geometry"/></mxCell><mxCell id="F8KAaUYo4xUCTzD1Fr2z-4" value="Emailer" style="whiteSpace=wrap;html=1;align=center;" parent="PqkLz5KyG0VK8wkJFPBa-0" vertex="1"><mxGeometry y="290" width="110" height="60" as="geometry"/></mxCell><mxCell id="F8KAaUYo4xUCTzD1Fr2z-5" value="Subscriber" style="whiteSpace=wrap;html=1;align=center;" parent="PqkLz5KyG0VK8wkJFPBa-0" vertex="1"><mxGeometry x="410" y="310" width="120" height="60" as="geometry"/></mxCell><mxCell id="F8KAaUYo4xUCTzD1Fr2z-6" value="" style="edgeStyle=entityRelationEdgeStyle;fontSize=12;html=1;endArrow=ERmandOne;startArrow=ERmandOne;entryX=0;entryY=0.75;entryDx=0;entryDy=0;" parent="PqkLz5KyG0VK8wkJFPBa-0" source="F8KAaUYo4xUCTzD1Fr2z-4" target="PgQLEo8v4_Qlvh2O1nzl-7" edge="1"><mxGeometry width="100" height="100" relative="1" as="geometry"><mxPoint x="260" y="330" as="sourcePoint"/><mxPoint x="360" y="230" as="targetPoint"/></mxGeometry></mxCell><mxCell id="F8KAaUYo4xUCTzD1Fr2z-8" value="" style="edgeStyle=entityRelationEdgeStyle;fontSize=12;html=1;endArrow=ERmandOne;exitX=0.995;exitY=0.584;exitDx=0;exitDy=0;exitPerimeter=0;entryX=0;entryY=0.5;entryDx=0;entryDy=0;" parent="PqkLz5KyG0VK8wkJFPBa-0" source="PgQLEo8v4_Qlvh2O1nzl-7" target="F8KAaUYo4xUCTzD1Fr2z-5" edge="1"><mxGeometry width="100" height="100" relative="1" as="geometry"><mxPoint x="260" y="400" as="sourcePoint"/><mxPoint x="360" y="300" as="targetPoint"/></mxGeometry></mxCell><mxCell id="F8KAaUYo4xUCTzD1Fr2z-9" value="" style="edgeStyle=entityRelationEdgeStyle;fontSize=12;html=1;endArrow=ERmandOne;exitX=0.5;exitY=1;exitDx=0;exitDy=0;entryX=0;entryY=0;entryDx=0;entryDy=0;" parent="PqkLz5KyG0VK8wkJFPBa-0" source="PgQLEo8v4_Qlvh2O1nzl-7" target="F8KAaUYo4xUCTzD1Fr2z-0" edge="1"><mxGeometry width="100" height="100" relative="1" as="geometry"><mxPoint x="339.4000000000001" y="315.03999999999996" as="sourcePoint"/><mxPoint x="420" y="350" as="targetPoint"/></mxGeometry></mxCell><mxCell id="F8KAaUYo4xUCTzD1Fr2z-10" value="" style="edgeStyle=entityRelationEdgeStyle;fontSize=12;html=1;endArrow=ERmandOne;exitX=0.995;exitY=0.584;exitDx=0;exitDy=0;exitPerimeter=0;entryX=0.007;entryY=0.374;entryDx=0;entryDy=0;entryPerimeter=0;" parent="PqkLz5KyG0VK8wkJFPBa-0" target="F8KAaUYo4xUCTzD1Fr2z-2" edge="1"><mxGeometry width="100" height="100" relative="1" as="geometry"><mxPoint x="329.4000000000001" y="415.03999999999996" as="sourcePoint"/><mxPoint x="410" y="450" as="targetPoint"/></mxGeometry></mxCell><mxCell id="F8KAaUYo4xUCTzD1Fr2z-11" value="" style="edgeStyle=entityRelationEdgeStyle;fontSize=12;html=1;endArrow=ERmandOne;exitX=0.5;exitY=1;exitDx=0;exitDy=0;entryX=0.5;entryY=0;entryDx=0;entryDy=0;" parent="PqkLz5KyG0VK8wkJFPBa-0" source="F8KAaUYo4xUCTzD1Fr2z-0" target="F8KAaUYo4xUCTzD1Fr2z-1" edge="1"><mxGeometry width="100" height="100" relative="1" as="geometry"><mxPoint x="359.4000000000001" y="335.03999999999996" as="sourcePoint"/><mxPoint x="440" y="370" as="targetPoint"/></mxGeometry></mxCell></root></mxGraphModel></diagram></mxfile>